<?xml version="1.0" encoding="utf-8"?>
<!-- Generator: Adobe Illustrator 21.0.0, SVG Export Plug-In . SVG Version: 6.00 Build 0)  -->
<svg version="1.1" id="Capa_1" xmlns="http://www.w3.org/2000/svg" xmlns:xlink="http://www.w3.org/1999/xlink" x="0px" y="0px"
	 viewBox="-48 172 498.9 498.9" style="enable-background:new -48 172 498.9 498.9;" xml:space="preserve">
<style type="text/css">
	.st0{fill: #2a2a2a; stroke:#2a2a2a;stroke-width:4;stroke-miterlimit:10;}
</style>
<g>
	<path class="st0" d="M376.2,362.3H-9.2c-16.6,0-30.2,13.5-30.2,30.2v158.7c0,16.6,13.5,30.2,30.2,30.2h385.5
		c16.6,0,30.2-13.5,30.2-30.2V392.5C406.4,375.8,392.9,362.3,376.2,362.3z M391.4,551.2c0,8.4-6.8,15.2-15.2,15.2H-9.2
		c-8.4,0-15.2-6.8-15.2-15.2V392.5c0-8.4,6.8-15.2,15.2-15.2h385.5c8.4,0,15.2,6.8,15.2,15.2V551.2z"/>
	<path class="st0" d="M440.2,311.9H54.8c-16.6,0-30.2,13.5-30.2,30.2v35.2h15v-35.2c0-8.4,6.8-15.2,15.2-15.2h385.5
		c8.4,0,15.2,6.8,15.2,15.2v158.7c0,8.4-6.8,15.2-15.2,15.2h-48.8v15h48.8c16.6,0,30.2-13.5,30.2-30.2V342.1
		C470.4,325.5,456.9,311.9,440.2,311.9z"/>
	<g>
		<path class="st0" d="M163.4,407.9c7.7-1.3,17.8-2.4,30.6-2.4c15.8,0,27.3,3.7,34.6,10.3c6.8,5.9,10.8,14.8,10.8,25.8
			c0,11.2-3.3,20-9.5,26.4c-8.4,9-22.2,13.6-37.7,13.6c-4.8,0-9.2-0.2-12.8-1.1v49.5h-15.9V407.9z M179.4,467.5
			c3.5,0.9,7.9,1.3,13.2,1.3c19.2,0,31-9.3,31-26.4c0-16.3-11.5-24.2-29.1-24.2c-7,0-12.3,0.6-15,1.3V467.5z"/>
	</g>
	<rect x="136" y="498.9" class="st0" width="74" height="12"/>
</g>
</svg>
