<?xml version="1.0" encoding="utf-8"?>
<!-- Generator: Adobe Illustrator 21.0.0, SVG Export Plug-In . SVG Version: 6.00 Build 0)  -->
<svg version="1.1" id="Layer_1" xmlns="http://www.w3.org/2000/svg" xmlns:xlink="http://www.w3.org/1999/xlink" x="0px" y="0px"
	 viewBox="-41 309.3 512 223.2" style="enable-background:new -41 309.3 512 223.2;" xml:space="preserve">
<style type="text/css">
	.st0{fill: white; stroke:#ffffff;stroke-width:3;stroke-miterlimit:10;}
</style>
<g>
	<g>
		<g>
			<g>
				<path class="st0" d="M362.9,464.6c7.7,0,13.9,6.2,13.9,13.9c0,7.7-6.2,13.9-13.9,13.9c-7.7,0-13.9-6.2-13.9-13.9
					C349.1,470.8,355.3,464.6,362.9,464.6z"/>
				<path class="st0" d="M-6.3,358.2l97.6-39.1c16.2-6.5,33.3-9.8,50.9-9.8h59.8c21.4,0,42.8,5.1,61.9,14.8l88.4,44.9l63.4,9.2
					c15.4,2.2,29.4,9.9,39.6,21.7c10.2,11.7,15.7,26.8,15.7,42.3v37.4c0,5.8-4.7,10.5-10.5,10.5h-44.9c-2.3,10.2-7.4,19.5-15,26.9
					c-10.1,9.9-23.5,15.3-37.7,15.3c-14.1,0-27.5-5.4-37.6-15.3c-7.6-7.4-12.8-16.8-15-26.9H122.6c-2.3,10.2-7.4,19.5-15,26.9
					C97.4,527,84,532.5,69.9,532.5c-14.1,0-27.5-5.4-37.6-15.3c-7.6-7.4-12.8-16.8-15-26.9h-47.7c-5.8,0-10.5-4.7-10.5-10.5v-70.2
					C-41,386.8-27.4,366.7-6.3,358.2z M99.1,338.6l-75.3,30.2h56.8l25-32.6C103.4,336.9,101.2,337.7,99.1,338.6z M192.1,330.2h-50
					c-1.9,0-3.8,0-5.7,0.1L107,368.7h85.1V330.2z M254.4,342.8c-12.9-6.5-27-10.6-41.3-12v37.9h92.3L254.4,342.8z M414.3,399.4
					c4.3,14.6,17.1,25.5,32.7,27C441.5,412.7,429.3,402.1,414.3,399.4z M362.9,511.5c18.2,0,33-14.8,33-33s-14.8-33-33-33
					c-18.2,0-33,14.8-33,33C329.9,496.7,344.7,511.5,362.9,511.5z M69.9,511.5c18.2,0,33-14.8,33-33s-14.8-33-33-33
					c-18.2,0-33,14.8-33,33C36.9,496.7,51.7,511.5,69.9,511.5z M-20.1,469.3h36.8c4.4-25.4,26.5-44.8,53.2-44.8
					c26.6,0,48.8,19.4,53.2,44.8h186.7c4.4-25.4,26.6-44.8,53.2-44.8c26.6,0,48.8,19.4,53.2,44.8h34v-21.9
					c-29.7-0.3-54.1-22.6-57.8-51.3l-44-6.4H85.7c0,0,0,0,0,0c0,0,0,0,0,0H19.5v13.6c0,19.2-15.6,34.8-34.7,34.8h-4.8L-20.1,469.3
					L-20.1,469.3z M-20.1,417.1h4.8c7.6,0,13.8-6.2,13.8-13.8v-13.6h-12.3c-4,5.7-6.3,12.5-6.3,19.9L-20.1,417.1L-20.1,417.1z"/>
				<path class="st0" d="M69.9,464.6c7.7,0,13.9,6.2,13.9,13.9c0,7.7-6.2,13.9-13.9,13.9c-7.7,0-13.9-6.2-13.9-13.9
					C56,470.8,62.2,464.6,69.9,464.6z"/>
			</g>
		</g>
	</g>
</g>
</svg>
