<?xml version="1.0" encoding="utf-8"?>
<!-- Generator: Adobe Illustrator 19.1.0, SVG Export Plug-In . SVG Version: 6.00 Build 0)  -->
<svg version="1.1" id="Слой_1" xmlns="http://www.w3.org/2000/svg" xmlns:xlink="http://www.w3.org/1999/xlink" x="0px" y="0px"
	 viewBox="-266 381.1 63 78.8" style="enable-background:new -266 381.1 63 78.8;" xml:space="preserve">
<style type="text/css">
	.st0{fill:#F0C700;}
</style>
<g>
	<g>
		<path class="st0" d="M-215.3,428.7v-40.2c0-0.7-0.5-1.2-1.2-1.2h-40.2c-0.7,0-1.2,0.5-1.2,1.2v40.2c0,0.7,0.6,1.2,1.2,1.2h40.2
			C-215.9,429.9-215.3,429.4-215.3,428.7z M-217.8,427.5h-37.8v-37.8h37.8V427.5z"/>
		<path class="st0" d="M-206.8,439.1c-0.1,0-5.6-1.7-8.4-3.9c-3.9-3-9-2.8-9.2-2.8h-15.2c-1.8,0-3.3,1.4-3.5,3.2l-6.1-2.8
			c-0.9-0.4-1.8-0.4-2.7-0.1c-0.9,0.3-1.6,1-2,1.8c-0.4,0.9-0.4,1.8-0.1,2.7c0.3,0.9,1,1.6,1.8,2l13.7,6.4c0.2,0.1,3.2,1.7,6.9,1.7
			c0.8,0,1.7-0.1,2.6-0.3c3.4-0.7,9.2,0.1,9.2,0.1c0.7,0.1,1.3-0.4,1.4-1c0.1-0.7-0.4-1.3-1-1.4c-0.2,0-6.2-0.9-10.1,0
			c-3.9,0.9-7.8-1.1-7.9-1.2l-13.8-6.5c-0.3-0.1-0.5-0.3-0.6-0.6c-0.1-0.3-0.1-0.6,0-0.8c0.1-0.3,0.3-0.5,0.6-0.6
			c0.3-0.1,0.6-0.1,0.8,0l9,4.2c0.1,0.1,0.3,0.1,0.4,0.1c0.4,0.1,0.8,0.2,1.2,0.2h10c0.7,0,1.2-0.5,1.2-1.2c0-0.7-0.5-1.2-1.2-1.2
			h-10c-0.6,0-1.1-0.5-1.1-1.1c0-0.6,0.5-1.1,1.1-1.1l15.3,0c0,0,4.4-0.2,7.6,2.3c3.2,2.4,8.9,4.2,9.1,4.2c0.6,0.2,1.3-0.2,1.5-0.8
			C-205.8,440-206.2,439.3-206.8,439.1z"/>
	</g>
</g>
</svg>
