<?xml version="1.0" encoding="utf-8"?>
<!-- Generator: Adobe Illustrator 21.0.0, SVG Export Plug-In . SVG Version: 6.00 Build 0)  -->
<svg version="1.1" id="Слой_1" xmlns="http://www.w3.org/2000/svg" xmlns:xlink="http://www.w3.org/1999/xlink" x="0px" y="0px"
	 viewBox="0 0 63 78.8" style="enable-background:new 0 0 63 78.8;" xml:space="preserve">
<style type="text/css">
	.st0{fill:#FEC900;stroke:#F0C700;stroke-width:0.75;stroke-miterlimit:10;}
</style>
<path class="st0" d="M52.2,14.3c-5.5-5.5-12.8-8.5-20.7-8.5s-15.2,3-20.7,8.5S2.3,27.1,2.3,35c0,7.8,3,15.2,8.5,20.7
	s12.8,8.5,20.7,8.5s15.2-3,20.7-8.5s8.5-12.8,8.5-20.7S57.7,19.8,52.2,14.3z M51,15.4c5.3,5.3,8.1,12.1,8.1,19.5
	c0,7.1-2.7,13.9-7.6,19L34.9,37.3c3.9-2.8,6.4-10.3,6.4-17.3c0-2.3-0.2-3.9-0.7-6.1c-0.1-0.4-0.4-0.6-0.8-0.6H23
	c-0.4,0-0.7,0.3-0.8,0.6c-0.5,2.2-0.7,3.9-0.7,6.1c0,1.5,0.1,2.9,0.3,4.3l-9.4-9.4c5.2-4.9,11.9-7.6,19-7.6
	C38.9,7.3,45.9,10.2,51,15.4z M31.5,52.1l5.6,3H26L31.5,52.1z M31.5,37c-2.5,0-5.3-2.9-6.9-7.7l7.7,7.7C32,37,31.8,37,31.5,37z
	 M23.8,26.2c-0.4-1.9-0.6-4-0.6-6.2c0-2,0.1-3.4,0.5-5.2h15.5c0.4,1.8,0.5,3.2,0.5,5.2c0,8-2.8,14.1-5.9,16.2L23.8,26.2z M12,54.5
	C6.7,49.3,3.8,42.4,3.8,35c0-7.1,2.7-13.9,7.6-19l11.1,11.1c1.3,5.9,4.3,10.8,8.3,11.5v12.3l-8.2,4.5c-0.3,0.2-0.5,0.6-0.4,0.9
	c0.1,0.4,0.4,0.6,0.8,0.6h17.2c0.4,0,0.7-0.3,0.8-0.6c0.1-0.3-0.1-0.7-0.4-0.9l-8.2-4.5V38.6c0.4-0.1,0.8-0.2,1.3-0.3l17,17
	c-5.2,4.9-11.9,7.6-19,7.6C24.1,62.7,17.1,59.8,12,54.5z"/>
</svg>
