<?xml version="1.0" encoding="utf-8"?>
<!-- Generator: Adobe Illustrator 19.1.0, SVG Export Plug-In . SVG Version: 6.00 Build 0)  -->
<svg version="1.1" id="Слой_1" xmlns="http://www.w3.org/2000/svg" xmlns:xlink="http://www.w3.org/1999/xlink" x="0px" y="0px"
	 viewBox="-266 381.1 63 78.8" style="enable-background:new -266 381.1 63 78.8;" xml:space="preserve">
<style type="text/css">
	.st0{fill:#F0C700;}
</style>
<g>
	<path class="st0" d="M-217.5,418.3l-7.5-2.7c-1.4-0.3-3.5-1.9-3.5-3v-1.7c3.5-3.3,6-9,6.7-13.5c0.7-1.9,0.5-4.6,0.5-5.3
		c1.6-1.3,1.9-2.6,1.9-3.5c0-2.5-2.5-4.6-6.9-5.9c-2.1-0.9-4.8-1.1-8.2-1.1c0,0-5-0.3-8.3,1.1c-4.4,1.3-6.9,3.4-6.9,5.9
		c0,0.9,0.4,2.2,1.9,3.5c0,0.7-0.3,3.6,0.4,5.3c0.8,4.5,3.2,10.2,6.7,13.5v1.7c0,1.1-2,2.7-3.5,3l-7.6,2.7
		c-5.7,2.2-9.7,7.8-9.7,14.2v11.1h54v-11.1C-207.5,426.1-211.5,420.5-217.5,418.3z M-224.1,418.1l-4.4,5.9l-4.3-5l5.1-2.4
		C-226.9,417.3-224.1,418.1-224.1,418.1z M-234.5,420.1l2.2,2.5l-1.7,3.9l1.9,15.1h-4.7l1.9-15.1l-1.8-3.7L-234.5,420.1z
		 M-233.2,395.5c-0.4,0-2.1,0-2.5,0c-4.9,0.3-8.6,2.9-9.6,1.3c-0.1-0.5-0.1-1-0.2-1.5c7.1-2.2,14.8-2.2,22,0c0,0.5-0.1,1-0.2,1.5
		C-224.2,398.5-229.7,395.5-233.2,395.5z M-242,384.6c2.2-1.1,7.6-0.9,7.6-0.9c3.2,0,5.7,0.2,7.4,0.9c0,0,5.6,1.3,5.6,4.1
		c0,1.3-2,2.6-2,2.6s0.1,1.6,0.1,2.1c-7.3-2.2-15.2-2.2-22.5,0c0-0.5,0.1-2.1,0.1-2.1s-2-1.2-2-2.6C-247.6,386-242,384.6-242,384.6z
		 M-244.8,399.3c2.1,0.1,6.2-1.6,9-1.8c0.6,0,2.1,0,2.6,0c2.4,0.1,6.9,2,9,1.8c-1.6,5.9-5.7,12.4-10.3,12.4
		C-239.1,411.6-243.2,405.1-244.8,399.3z M-234.5,413.6c1.4,0,2.8-0.4,4-1.2c0,0-0.2,1.2,1.1,2.7l-5.1,2.4l-5.1-2.4
		c1.3-1.5,1.1-2.7,1.1-2.7C-237.3,413.2-235.9,413.6-234.5,413.6z M-241.3,416.6l5.1,2.4l-4.3,5l-4.4-5.9
		C-244.9,418.1-242,417.2-241.3,416.6z M-259.5,432.5c0-5.5,3.5-10.4,8.6-12.2l4-1.4l6.3,8.4l2.4-2.8l1.2,2.4l-1.8,14.8h-20.7V432.5
		z M-209.5,441.6h-20.7l-1.8-14.8l1.1-2.4l2.4,2.8l6.3-8.4l4,1.4c5.2,1.8,8.6,6.8,8.6,12.2v9.2H-209.5z"/>
	<path class="st0" d="M-222.5,434.1l4,2.7l4-2.7v-6.5h-8V434.1z M-220.5,429.6h4v3.5l-2,1.3l-2-1.3V429.6z"/>
	<path class="st0" d="M-231.5,388v-3.4h-6v3.4l3,3L-231.5,388z M-235.5,386.6h2v0.6l-1,1l-1-1V386.6z"/>
</g>
</svg>
