<?xml version="1.0" encoding="utf-8"?>
<!-- Generator: Adobe Illustrator 19.1.0, SVG Export Plug-In . SVG Version: 6.00 Build 0)  -->
<svg version="1.1" id="Слой_1" xmlns="http://www.w3.org/2000/svg" xmlns:xlink="http://www.w3.org/1999/xlink" x="0px" y="0px"
	 viewBox="-266 381.1 63 78.8" style="enable-background:new -266 381.1 63 78.8;" xml:space="preserve">
<style type="text/css">
	.st0{fill:#F0C700;}
</style>
<g>
	<g>
		<path class="st0" d="M-229.4,415.5h15.8c0.6,0,1.1-0.5,1.1-1.1s-0.5-1.1-1.1-1.1h-15.8c-0.6,0-1.1,0.5-1.1,1.1
			S-230,415.5-229.4,415.5z M-229.4,408.8h6.8c0.6,0,1.1-0.5,1.1-1.1c0-0.6-0.5-1.1-1.1-1.1h-6.8c-0.6,0-1.1,0.5-1.1,1.1
			C-230.6,408.3-230,408.8-229.4,408.8z M-238.7,429.1h-17.8c-1.9,0-3.4-1.5-3.4-3.4v-25.9h49.6v22.1c0,0.6,0.5,1.1,1.1,1.1
			c0.6,0,1.1-0.5,1.1-1.1v-25.5c0-3.1-2.5-5.6-5.6-5.6h-42.8c-3.1,0-5.6,2.5-5.6,5.6v29.3c0,3.1,2.5,5.6,5.6,5.6h17.8
			c0.6,0,1.1-0.5,1.1-1.1S-238.1,429.1-238.7,429.1z M-259.9,396.4c0-1.9,1.5-3.4,3.4-3.4h42.8c1.9,0,3.4,1.5,3.4,3.4v1.1h-49.6
			V396.4z M-219.3,433.6h-4.5c-0.6,0-1.1,0.5-1.1,1.1c0,0.6,0.5,1.1,1.1,1.1h4.5c0.6,0,1.1-0.5,1.1-1.1
			C-218.2,434.1-218.7,433.6-219.3,433.6z M-213.6,406.3h-4.5c-0.6,0-1.1,0.5-1.1,1.1s0.5,1.1,1.1,1.1h4.5c0.6,0,1.1-0.5,1.1-1.1
			S-213,406.3-213.6,406.3z M-208.4,429.9c0.2-0.1,1.5-1.4,1.5-3.1c0-0.9-0.7-1.6-1.7-1.6c-0.6,0-1.5,0.3-2.4,0.8
			c-1.1-2.3-2.9-4.4-4.2-5c-0.9-0.4-3.8-0.9-6.4-0.9s-5.5,0.5-6.4,0.9c-1.3,0.6-3.1,2.7-4.2,5c-0.8-0.5-1.8-0.8-2.4-0.8
			c-0.4,0-0.8,0.1-1.1,0.3c-0.4,0.3-0.6,0.7-0.6,1.3c0,1.8,1.4,3,1.5,3.1c0.1,0.1,0.3,0.2,0.4,0.2c-0.5,1.5-0.8,3.2-0.8,4.6
			c0,1.7,0.2,4.6,1.1,6v1.9c0,1.3,1,2.3,2.3,2.3h2.3c1.3,0,2.3-1,2.3-2.3v-0.8c1.4,0.3,3.5,0.8,5.6,0.8s4.3-0.4,5.6-0.8v0.8
			c0,1.3,1,2.3,2.3,2.3h2.3c1.3,0,2.3-1,2.3-2.3v-1.9c1-1.5,1.1-4.3,1.1-6c0-1.4-0.3-3.1-0.8-4.6
			C-208.7,430.1-208.5,430-208.4,429.9z M-226.9,423c0.4-0.2,2.8-0.7,5.4-0.7s5,0.5,5.4,0.7c0.9,0.4,2.8,2.7,3.6,5.1
			c-2.1,0.3-7.1,1-9,1s-6.9-0.7-9-1C-229.8,425.6-227.8,423.4-226.9,423z M-233.3,428.1c-0.1-0.1-0.2-0.2-0.3-0.4
			c0.1,0.1,0.3,0.1,0.4,0.2C-233.2,428-233.2,428.1-233.3,428.1z M-229.4,442.6h-2.3v-1.1h2.3V442.6z M-211.4,442.6h-2.3v-1.1h2.3
			V442.6z M-210.9,439.2h-3.9c-0.1,0-0.2,0-0.4,0.1c0,0-3.3,1.1-6.4,1.1s-6.4-1.1-6.4-1.1c0,0-0.1,0-0.1,0c-0.1,0-0.2-0.1-0.3-0.1
			h-3.9c-0.3-0.7-0.6-2.2-0.6-4.5c0-0.4,0-0.7,0.1-1.1c1.5,0,3.3,0.6,3.3,1.1c0,0.6,0.5,1.1,1.1,1.1c0.6,0,1.1-0.5,1.1-1.1
			c0-2.8-3.7-3.3-5.1-3.4c0.1-0.4,0.3-0.8,0.4-1.2c0,0,0,0,0,0c0.3,0,7.8,1.1,10.3,1.1s10-1.1,10.3-1.1c0,0,0,0,0,0
			c0.2,0.4,0.3,0.8,0.4,1.2c-1.4,0.1-5.1,0.6-5.1,3.4c0,0.6,0.5,1.1,1.1,1.1s1.1-0.5,1.1-1.1c0-0.6,1.8-1.1,3.3-1.1
			c0,0.4,0.1,0.8,0.1,1.1C-210.3,437-210.6,438.5-210.9,439.2z M-209.8,428.1c0-0.1-0.1-0.1-0.1-0.2c0.1-0.1,0.3-0.2,0.4-0.2
			C-209.6,427.9-209.7,428-209.8,428.1z M-234.8,422.7c0.4-0.5,0.4-1.2-0.1-1.6c-0.8-0.7-1.7-1.2-2.6-1.4l-3-0.8
			c2.1-0.5,3.2-1.1,3.2-1.1c0.3-0.2,0.5-0.5,0.5-0.9c0-0.4-0.1-0.7-0.4-1c0,0-1.5-1.4-1.5-6c0-4.6-1.2-7-3.6-7h0
			c-0.8-0.7-1.4-1-2.9-1c-2,0-6.5,2-6.5,8c0,4.6-1.5,6-1.5,6c-0.3,0.2-0.5,0.6-0.4,1c0,0.4,0.2,0.7,0.5,0.9c0.1,0,1.1,0.7,3.2,1.1
			l-3,0.8c-2.7,0.7-4.7,3.1-4.7,6c0,0.6,0.5,1.1,1.1,1.1h17c0.6,0,1.1-0.5,1.1-1.1c0-0.6-0.5-1.1-1.1-1.1l-15.7,0
			c0.4-1.3,1.4-2.3,2.8-2.6l4-1c0.4-0.1,0.7-0.4,0.8-0.8l0.4-1.7c0.1-0.3,0-0.6-0.2-0.9c-0.2-0.3-0.5-0.4-0.8-0.5
			c-1.2-0.2-2.1-0.4-2.7-0.6c0.6-1.2,1.3-3.1,1.3-6.4c0-4.7,3.6-5.7,4.3-5.7c1,0,1.1,0.1,1.7,0.7c0.2,0.2,0.5,0.3,0.8,0.3h0.5
			c0.7,0,1.3,1.5,1.3,4.8c0,3.2,0.7,5.2,1.3,6.4c-0.7,0.2-1.6,0.5-2.7,0.6c-0.3,0-0.6,0.2-0.8,0.5c-0.2,0.3-0.2,0.6-0.2,0.9l0.4,1.7
			c0.1,0.4,0.4,0.7,0.8,0.8l4,1c0.6,0.2,1.2,0.5,1.7,0.9C-235.9,423.2-235.2,423.2-234.8,422.7z"/>
	</g>
</g>
</svg>
