<?xml version="1.0" encoding="utf-8"?>
<!-- Generator: Adobe Illustrator 19.1.0, SVG Export Plug-In . SVG Version: 6.00 Build 0)  -->
<svg version="1.1" id="Слой_1" xmlns="http://www.w3.org/2000/svg" xmlns:xlink="http://www.w3.org/1999/xlink" x="0px" y="0px"
	 viewBox="-266 381.1 63 78.8" style="enable-background:new -266 381.1 63 78.8;" xml:space="preserve">
<style type="text/css">
	.st0{fill:#F0C700;}
</style>
<path class="st0" d="M-262.2,415.8c-1.1,2.2-1.7,4.6-1.6,7.1v15.2c0,2.5,2,4.5,4.5,4.5h4.1c2.5,0,4.5-2,4.5-4.5V437h33.1v1.1
	c0,2.5,2,4.4,4.5,4.4h4.1c2.5,0,4.5-2,4.5-4.5V423c0.1-2.5-0.5-4.9-1.6-7.1c2.1-0.4,3.7-2.2,3.8-4.4c0-0.9,0-1.7,0-2.3
	c-0.1-2.4-2-4.3-4.3-4.3c-0.4,0-0.8,0-1.2,0c-1,0-2.1,0.3-3,0.8c-1.1-2.6-2.9-6.6-4.1-8.4c-2.4-3.4-5.8-4.4-8.2-4.8
	c-0.7-0.1-1.4-0.2-2.2-0.3v-2.2c0-1.6-1.3-2.9-2.9-2.9h-11.6c-1.6,0-2.9,1.3-2.9,2.9v2.2c-0.8,0.1-1.5,0.2-2.2,0.3
	c-2.4,0.4-5.8,1.4-8.2,4.8c-1.3,1.8-3,5.8-4.1,8.4c-0.9-0.5-1.9-0.8-3-0.9c-0.4,0-0.8,0-1.2,0c-2.4,0.1-4.3,2-4.4,4.4
	c0,0.6,0,1.4,0,2.3C-266,413.6-264.4,415.5-262.2,415.8z M-263.4,409.2c0-1,0.8-1.9,1.8-1.9c0,0,0,0,0,0h1.1c1,0.1,2,0.5,2.7,1.2
	c0.5,0.5,1.3,0.5,1.8-0.1c0.1-0.1,0.2-0.3,0.3-0.4c1.8-4.5,3.5-8.1,4.5-9.5c1.8-2.6,4.4-3.4,6.5-3.7c1-0.2,2-0.3,3.1-0.4
	c0.7-0.1,1.2-0.6,1.2-1.3v-3.4c0-0.2,0.2-0.3,0.3-0.3l0,0h11.6c0.2,0,0.3,0.2,0.3,0.3l0,0v3.4c0,0.7,0.5,1.2,1.2,1.3
	c1.1,0.1,2.2,0.2,3.1,0.4c2.1,0.4,4.7,1.1,6.5,3.7c1,1.4,2.7,5,4.5,9.5c0.3,0.7,1,1,1.7,0.7c0.1-0.1,0.3-0.1,0.4-0.3
	c0.7-0.7,1.6-1.2,2.7-1.2h1.1c1,0,1.9,0.8,1.9,1.8c0,0,0,0,0,0.1l0,0c0,0.6,0,1.3,0,2.2c0,1.1-0.9,1.9-1.9,1.9h-1.3h-0.2
	c-0.7,0-1.3,0.6-1.3,1.3c0,0.3,0.1,0.5,0.2,0.8c0.1,0.2,0.3,0.4,0.4,0.6c1.3,2.1,2,4.5,1.9,7v15.2c0,1-0.8,1.9-1.9,1.9l0,0h-4
	c-1,0-1.9-0.8-1.9-1.9l0,0v-2.4c0-0.7-0.6-1.3-1.3-1.3h-35.7c-0.7,0-1.3,0.6-1.3,1.3v2.4c0,1-0.8,1.9-1.9,1.9h-4.1
	c-1,0-1.9-0.8-1.9-1.9l0,0v-15.2c-0.1-2.5,0.6-4.9,1.9-6.9c0.1-0.2,0.3-0.4,0.4-0.6c0.4-0.6,0.3-1.4-0.3-1.8
	c-0.2-0.2-0.5-0.3-0.8-0.3h-0.2l-1.3,0c-1.1,0-1.9-0.9-1.9-1.9C-263.4,410.5-263.4,409.9-263.4,409.2z M-252,425.9h5.8
	c2.1,0,3.8-1.7,3.8-3.7c0-1.7-1.2-3.2-2.8-3.7l-5.8-1.5c-2-0.5-4.1,0.7-4.6,2.7c-0.1,0.3-0.1,0.6-0.1,0.9v1.5
	C-255.8,424.2-254.1,425.9-252,425.9C-252,425.9-252,425.9-252,425.9L-252,425.9z M-253.2,420.6c0-0.6,0.5-1.2,1.2-1.2
	c0.1,0,0.2,0,0.3,0l5.8,1.5c0.6,0.2,1,0.8,0.9,1.4c-0.1,0.5-0.6,0.9-1.2,0.9h-5.8c-0.6,0-1.2-0.5-1.2-1.2V420.6z M-251.1,412.1h33.6
	c0.7,0,1.3-0.6,1.3-1.3c0-0.2,0-0.3-0.1-0.5c-1.1-2.8-3.2-7.9-4.3-9.4c-0.8-1.1-1.9-1.7-3.9-2.1c-3.2-0.5-6.5-0.7-9.8-0.6
	c-3.3-0.1-6.5,0.1-9.7,0.6c-2,0.3-3.1,1-3.9,2.1c-1.1,1.6-3.2,6.7-4.3,9.4c-0.3,0.7,0.1,1.4,0.7,1.7
	C-251.4,412.1-251.3,412.1-251.1,412.1z M-245.9,402.4c0.2-0.3,0.5-0.7,2.2-1c3.1-0.5,6.2-0.7,9.3-0.6c3.1-0.1,6.2,0.1,9.3,0.6
	c1.7,0.3,2,0.7,2.2,1c1.3,2.3,2.4,4.7,3.3,7.1h-29.7C-248.2,407.1-247.1,404.7-245.9,402.4L-245.9,402.4z M-217.6,416.9l-5.8,1.5
	c-2,0.5-3.2,2.6-2.7,4.6c0.4,1.7,1.9,2.8,3.7,2.8h5.8c2.1,0,3.8-1.7,3.8-3.8v-1.5c0-2.1-1.7-3.8-3.8-3.8
	C-216.9,416.8-217.3,416.8-217.6,416.9L-217.6,416.9z M-215.9,419.6c0.3,0.2,0.5,0.6,0.5,0.9v1.5c0,0.6-0.5,1.2-1.2,1.2h-5.8
	c-0.6,0-1.2-0.5-1.2-1.1c0-0.6,0.4-1,0.9-1.2l5.8-1.5c0.1,0,0.2,0,0.3,0C-216.4,419.4-216.1,419.5-215.9,419.6z"/>
</svg>
