<?xml version="1.0" encoding="utf-8"?>
<!-- Generator: Adobe Illustrator 19.1.0, SVG Export Plug-In . SVG Version: 6.00 Build 0)  -->
<svg version="1.1" id="Слой_1" xmlns="http://www.w3.org/2000/svg" xmlns:xlink="http://www.w3.org/1999/xlink" x="0px" y="0px"
	 viewBox="-266 381.1 63 78.8" style="enable-background:new -266 381.1 63 78.8;" xml:space="preserve">
<style type="text/css">
	.st0{fill:#F0C700;}
</style>
<g>
	<path class="st0" d="M-248.8,437.1c2.9,0,5.2-2.3,5.2-5.2c0-2.9-2.3-5.2-5.2-5.2s-5.2,2.3-5.2,5.2
		C-254,434.8-251.6,437.1-248.8,437.1z M-248.8,428.8c1.7,0,3.1,1.4,3.1,3.1s-1.4,3.1-3.1,3.1s-3.1-1.4-3.1-3.1
		C-251.9,430.2-250.5,428.8-248.8,428.8z"/>
	<path class="st0" d="M-219.6,437.1c2.9,0,5.2-2.3,5.2-5.2c0-2.9-2.3-5.2-5.2-5.2c-2.9,0-5.2,2.3-5.2,5.2
		C-224.8,434.8-222.5,437.1-219.6,437.1z M-219.6,428.8c1.7,0,3.1,1.4,3.1,3.1s-1.4,3.1-3.1,3.1s-3.1-1.4-3.1-3.1
		C-222.7,430.2-221.3,428.8-219.6,428.8z"/>
	<rect x="-240.5" y="430.9" class="st0" width="12.5" height="2.1"/>
	<path class="st0" d="M-263.4,385v48.2h4.2v10.2h4.2v4.2c0,1.1,0.9,2.1,2.1,2.1h6.3c1.1,0,2.1-0.9,2.1-2.1v-4.2h20.8v4.2
		c0,1.1,0.9,2.1,2.1,2.1h6.3c1.1,0,2.1-0.9,2.1-2.1v-4.2h4.2v-10.2h4.2V385H-263.4z M-252.9,447.5v-4.2h6.3v4.2H-252.9z
		 M-221.7,447.5v-4.2h6.3v4.2H-221.7z M-211.3,441.3h-45.8v-18.7h45.8L-211.3,441.3L-211.3,441.3z M-257.1,420.5V409
		c0-2.9,2.3-5.2,5.2-5.2h16.7v16.7H-257.1z M-211.3,420.5h-21.9v-16.7h16.7c2.9,0,5.2,2.3,5.2,5.2V420.5L-211.3,420.5z
		 M-207.1,431.1h-2.1V409c0-4-3.3-7.3-7.3-7.3h-35.4c-4,0-7.3,3.3-7.3,7.3v22.1h-2.1v-44h54.1V431.1z"/>
</g>
</svg>
