<?xml version="1.0" encoding="utf-8"?>
<!-- Generator: Adobe Illustrator 19.1.0, SVG Export Plug-In . SVG Version: 6.00 Build 0)  -->
<svg version="1.1" id="LOGO" xmlns="http://www.w3.org/2000/svg" xmlns:xlink="http://www.w3.org/1999/xlink" x="0px" y="0px"
	 viewBox="0 0 53.1 41.1" style="enable-background:new 0 0 53.1 41.1;" xml:space="preserve">
<style type="text/css">
	.st0{fill:#EFC700;}
</style>
<g>
	<g id="XMLID_2_">
		<g>
			<path id="XMLID_120_" class="st0" d="M9.2,11.8l-2.2,4.9H5.5l2.4-5.2C6.8,10.9,6,9.9,6,8c0-2.7,1.7-4,3.7-4h2v12.7h-1.4v-4.9H9.2
				z M10.4,5.2H9.7C8.6,5.2,7.5,5.9,7.5,8c0,2,1,2.7,2.2,2.7h0.7V5.2z"/>
			<path id="XMLID_112_" class="st0" d="M18.4,7.8v9H17v-4h-2.1v4h-1.4v-9h1.4v3.8H17V7.8H18.4z M25.5,18.5h-1.2v-1.8h-3.8v1.8h-1.2
				v-2.9h0.6c0.8-1.9,0.9-4.7,0.9-7.1V7.8h4.2v7.8h0.7V18.5z M23.4,8.9h-1.5V9c0,1.9-0.1,4.6-0.8,6.5h2.4V8.9z M29.3,16.8
				c-1.8,0-3-1.5-3-4.2c0-2.9,0.8-5,2.7-5c1.5,0,2.5,1.1,2.5,4.2v0.8h-3.7c0,2,0.6,3.1,1.7,3.1c0.8,0,1.4-0.4,1.8-0.6l0.3,1.1
				C30.9,16.6,30.2,16.8,29.3,16.8z M27.8,11.4h2.3c0-1.5-0.2-2.6-1-2.6C28.2,8.8,27.9,9.8,27.8,11.4z M34.3,12.3v4.5h-1.4v-9h1.4
				v4.1l2.2-4.1h1.4L35.6,12l2.5,4.7h-1.5L34.3,12.3z M38.4,12.2c0-2.8,1.1-4.6,3.2-4.6c0.8,0,1.3,0.2,1.7,0.5L43,9.4
				c-0.4-0.3-0.9-0.6-1.5-0.6c-1,0-1.7,1.1-1.7,3.4c0,2.2,0.5,3.5,1.7,3.5c0.7,0,1.2-0.3,1.5-0.6l0.3,1c-0.5,0.4-1,0.7-1.9,0.7
				C39.5,16.8,38.4,15.3,38.4,12.2z"/>
		</g>
	</g>
	<g>
		<path class="st0" d="M16.2,25.9h-1.9v6.8h-1.1v-6.8h-1.9v-1h5V25.9z"/>
		<path class="st0" d="M17,25.3c0.3-0.2,0.7-0.3,1.1-0.4c0.4-0.1,0.9-0.2,1.4-0.2c0.4,0,0.8,0.1,1.1,0.2c0.3,0.1,0.5,0.3,0.6,0.5
			c0.2,0.2,0.3,0.5,0.3,0.8c0,0.3,0.1,0.6,0.1,0.9c0,0.6,0,1.2,0,1.8c0,0.6,0,1.2,0,1.7c0,0.4,0,0.8,0,1.1c0,0.3,0.1,0.7,0.2,1h-0.9
			l-0.3-0.9h-0.1c-0.2,0.3-0.4,0.5-0.7,0.7c-0.3,0.2-0.7,0.3-1.2,0.3c-0.6,0-1-0.2-1.4-0.6c-0.4-0.4-0.5-0.9-0.5-1.6
			c0-0.4,0.1-0.8,0.2-1.1c0.2-0.3,0.4-0.5,0.6-0.7c0.3-0.2,0.6-0.3,1-0.4c0.4-0.1,0.8-0.1,1.3-0.1c0.1,0,0.2,0,0.3,0s0.2,0,0.3,0
			c0-0.3,0-0.6,0-0.9c0-0.6-0.1-1-0.3-1.3c-0.2-0.2-0.5-0.4-1-0.4c-0.3,0-0.6,0-0.9,0.1c-0.3,0.1-0.6,0.2-0.9,0.3L17,25.3z
			 M20.4,29.1c-0.1,0-0.2,0-0.3,0c-0.1,0-0.2,0-0.3,0c-0.2,0-0.5,0-0.7,0.1c-0.2,0-0.4,0.1-0.6,0.2c-0.2,0.1-0.3,0.2-0.4,0.4
			c-0.1,0.2-0.2,0.4-0.2,0.7c0,0.4,0.1,0.7,0.3,1c0.2,0.2,0.5,0.3,0.8,0.3c0.4,0,0.8-0.1,1-0.3c0.2-0.2,0.4-0.4,0.5-0.7V29.1z"/>
		<path class="st0" d="M25.1,29.1h-0.6v3.5h-1.1v-7.9h1.1v3.5l0.5-0.2l1.9-3.3h1.2L26.3,28l-0.5,0.5l0.7,0.6l2,3.5h-1.4L25.1,29.1z"
			/>
		<path class="st0" d="M33.7,32.3c-0.3,0.2-0.6,0.3-0.9,0.4c-0.3,0.1-0.7,0.1-1.1,0.1c-0.5,0-0.9-0.1-1.3-0.3
			c-0.3-0.2-0.6-0.5-0.8-0.8c-0.2-0.4-0.4-0.8-0.5-1.3C29,29.9,29,29.4,29,28.8c0-1.3,0.2-2.4,0.7-3.1c0.5-0.7,1.2-1.1,2-1.1
			c0.4,0,0.8,0,1.1,0.1c0.3,0.1,0.5,0.2,0.8,0.3l-0.3,1c-0.4-0.2-0.9-0.4-1.4-0.4c-0.6,0-1,0.2-1.3,0.7c-0.3,0.5-0.4,1.3-0.4,2.3
			c0,0.4,0,0.8,0.1,1.2c0.1,0.4,0.2,0.7,0.3,1c0.1,0.3,0.3,0.5,0.6,0.7c0.2,0.2,0.5,0.2,0.9,0.2c0.3,0,0.5,0,0.8-0.1
			c0.2-0.1,0.4-0.2,0.6-0.3L33.7,32.3z"/>
		<path class="st0" d="M38.8,28.2l0.1-1.2h-0.1l-0.5,1.3l-2.7,4.4h-0.7v-7.9H36v4.7L36,30.6H36l0.5-1.3l2.7-4.5H40v7.9h-1.1V28.2z"
			/>
	</g>
	<path class="st0" d="M46.9,37.8H3V20.6h43.9l4.6,8.3L46.9,37.8z M4.1,36.7h42.1l4.1-7.8l-4-7.3H4.1V36.7z"/>
</g>
</svg>
