<?xml version="1.0" encoding="utf-8"?>
<!-- Generator: Adobe Illustrator 19.1.0, SVG Export Plug-In . SVG Version: 6.00 Build 0)  -->
<svg version="1.1" id="Capa_1" xmlns="http://www.w3.org/2000/svg" xmlns:xlink="http://www.w3.org/1999/xlink" x="0px" y="0px"
	 viewBox="-272 396.2 49.7 49.7" style="enable-background:new -272 396.2 49.7 49.7;" xml:space="preserve">
<style type="text/css">
	.st0{fill-rule:evenodd;clip-rule:evenodd;}
</style>
<g>
	<path class="st0" d="M-241.6,420.9l0,0.7c-0.2,3.1-2.6,5.8-6.2,5.8c-3.2,0-5.7-2.3-5.7-6c0-3.3,2-6.2,5.7-6.2h0.1
		C-244.4,415.2-241.8,417.4-241.6,420.9z"/>
	<path class="st0" d="M-247.2,396.2c-13.7,0-24.8,11.1-24.8,24.8c0,13.7,11.1,24.8,24.8,24.8c13.7,0,24.8-11.1,24.8-24.8
		C-222.3,407.4-233.5,396.2-247.2,396.2z M-235.2,431.4c-2.4,1.9-6.1,0.1-6-2.7l0-0.9c-1.7,1.7-4,2.7-6.4,2.7
		c-4.9,0-9.2-4.3-9.2-9.2c0-4.9,4.3-9.2,9.2-9.2c2.5,0,4.8,1.1,6.5,2.8c0-0.8,0.5-1.4,1.3-1.4h0.2c1.2,0,1.5,1.1,1.5,1.5v12.7
		c-0.1,0.8,0.9,1.3,1.4,0.7c2-2.1,4.5-10.8-1.3-15.8c-5.4-4.7-12.6-3.9-16.4-1.3c-4.1,2.8-6.7,9-4.1,14.9c2.8,6.4,10.6,8.3,15.3,6.4
		c2.4-1,3.5,2.3,1,3.3c-3.7,1.6-14.1,1.4-19-7c-3.3-5.7-3.1-15.6,5.6-20.8c6.6-4,15.4-2.9,20.7,2.7
		C-229.5,416.4-229.9,427.2-235.2,431.4z"/>
</g>
</svg>
