<?xml version="1.0" encoding="utf-8"?>
<!-- Generator: Adobe Illustrator 19.1.0, SVG Export Plug-In . SVG Version: 6.00 Build 0)  -->
<svg version="1.1" id="Layer_1" xmlns="http://www.w3.org/2000/svg" xmlns:xlink="http://www.w3.org/1999/xlink" x="0px" y="0px"
	 viewBox="-41 164.9 512 512" style="enable-background:new -41 164.9 512 512;" xml:space="preserve">
<style type="text/css">
	.st0{fill:#FFFFFF;}
</style>
<circle cx="215" cy="420.9" r="251"/>
<g>
	<g>
		<path class="st0" d="M321.1,465.1c-7.4-7.7-16.4-11.9-25.9-11.9c-9.4,0-18.4,4.1-26.2,11.8l-24.2,24.1c-2-1.1-4-2.1-5.9-3.1
			c-2.8-1.4-5.4-2.7-7.6-4.1c-22.6-14.4-43.2-33.1-63-57.4c-9.6-12.1-16-22.3-20.7-32.6c6.3-5.7,12.1-11.7,17.8-17.4
			c2.1-2.1,4.3-4.4,6.4-6.5c16.1-16.1,16.1-36.9,0-52.9l-20.9-20.9c-2.4-2.4-4.8-4.8-7.1-7.3c-4.6-4.7-9.4-9.6-14.4-14.2
			c-7.4-7.3-16.3-11.2-25.6-11.2s-18.4,3.9-26,11.2c-0.1,0.1-0.1,0.1-0.2,0.2l-26,26.2c-9.8,9.8-15.4,21.7-16.6,35.6
			c-1.8,22.3,4.7,43.2,9.8,56.8c12.4,33.4,30.9,64.4,58.5,97.6c33.5,40,73.8,71.6,119.9,93.9c17.6,8.3,41.1,18.2,67.3,19.9
			c1.6,0.1,3.3,0.2,4.8,0.2c17.7,0,32.5-6.4,44.1-19c0.1-0.2,0.2-0.2,0.3-0.4c4-4.8,8.6-9.2,13.4-13.8c3.3-3.1,6.7-6.4,9.9-9.9
			c7.6-7.9,11.6-17.1,11.6-26.5c0-9.5-4.1-18.6-11.8-26.2L321.1,465.1z M348.5,545.7C348.5,545.7,348.5,545.7,348.5,545.7
			c-3,3.2-6,6.1-9.3,9.3c-5,4.7-10,9.7-14.8,15.3c-7.7,8.3-16.8,12.2-28.8,12.2c-1.1,0-2.4,0-3.5-0.1c-22.7-1.5-43.8-10.3-59.7-17.9
			c-43.3-21-81.3-50.7-112.9-88.4c-26.1-31.4-43.5-60.5-55.1-91.7c-7.1-19.1-9.7-33.9-8.6-47.9c0.8-9,4.2-16.4,10.6-22.7l26.1-26.1
			c3.7-3.5,7.7-5.4,11.6-5.4c4.8,0,8.7,2.9,11.2,5.4c0.1,0.1,0.2,0.2,0.2,0.2c4.7,4.4,9.1,8.9,13.8,13.7c2.4,2.4,4.8,4.9,7.3,7.4
			l20.9,20.9c8.1,8.1,8.1,15.6,0,23.7c-2.2,2.2-4.4,4.4-6.6,6.6c-6.4,6.6-12.5,12.7-19.2,18.7c-0.2,0.2-0.3,0.2-0.4,0.4
			c-6.6,6.6-5.4,13-4,17.4c0.1,0.2,0.2,0.5,0.2,0.7c5.4,13.2,13.1,25.6,24.7,40.3l0.1,0.1c21.1,26,43.4,46.3,67.9,61.8
			c3.1,2,6.4,3.6,9.4,5.1c2.8,1.4,5.4,2.7,7.6,4.1c0.3,0.2,0.6,0.4,0.9,0.5c2.6,1.3,5,1.9,7.6,1.9c6.4,0,10.3-4,11.6-5.3l26.2-26.2
			c2.6-2.6,6.7-5.7,11.6-5.7c4.7,0,8.6,3,11,5.6c0.1,0.1,0.1,0.1,0.2,0.2l42.2,42.2C356.3,529.5,356.3,537.6,348.5,545.7z"/>
		<path class="st0" d="M230.6,326.8c20,3.4,38.3,12.9,52.8,27.4c14.5,14.5,23.9,32.7,27.4,52.8c0.8,5,5.2,8.6,10.2,8.6
			c0.6,0,1.1-0.1,1.8-0.2c5.7-0.9,9.4-6.3,8.5-11.9c-4.1-24.3-15.6-46.4-33.1-63.9c-17.5-17.5-39.6-29-63.9-33.1
			c-5.7-0.9-10.9,2.8-11.9,8.4S224.9,325.9,230.6,326.8z"/>
		<path class="st0" d="M396.7,400.4c-6.8-39.9-25.6-76.3-54.6-105.2s-65.3-47.7-105.2-54.6c-5.6-1-10.9,2.8-11.9,8.4
			c-0.9,5.7,2.8,10.9,8.5,11.9c35.7,6,68.2,23,94,48.7c25.9,25.9,42.7,58.4,48.7,94c0.8,5,5.2,8.6,10.2,8.6c0.6,0,1.1-0.1,1.8-0.2
			C393.9,411.4,397.7,406,396.7,400.4z"/>
	</g>
</g>
</svg>
