<?xml version="1.0" encoding="utf-8"?>
<!-- Generator: Adobe Illustrator 19.1.0, SVG Export Plug-In . SVG Version: 6.00 Build 0)  -->
<svg version="1.1" id="Layer_1" xmlns="http://www.w3.org/2000/svg" xmlns:xlink="http://www.w3.org/1999/xlink" x="0px" y="0px"
	 viewBox="-41 164.9 512 512" style="enable-background:new -41 164.9 512 512;" xml:space="preserve">
<style type="text/css">
	.st0{fill:#FFFFFF;}
</style>
<circle cx="215" cy="420.9" r="251"/>
<g>
	<g>
		<path class="st0" d="M353.6,281.6H77.7c-24.6,0-44.6,20-44.6,44.6v188.6c0,24.6,20,44.6,44.6,44.6h275.8c24.6,0,44.6-20,44.6-44.6
			V326.3C398.3,301.7,378.3,281.6,353.6,281.6z M377.9,514.8c0,13.4-10.9,24.2-24.2,24.2H77.7c-13.4,0-24.2-10.9-24.2-24.2V326.3
			c0-13.4,10.9-24.2,24.2-24.2h275.8c13.4,0,24.2,10.9,24.2,24.2L377.9,514.8L377.9,514.8z"/>
		<path class="st0" d="M263.4,418.2l89.3-80.1c4.2-3.8,4.5-10.2,0.8-14.4c-3.8-4.2-10.2-4.5-14.4-0.8L215.8,433.5l-24-21.5
			c-0.1-0.1-0.2-0.2-0.2-0.2c-0.5-0.5-1.1-1-1.7-1.4l-97.8-87.5c-4.2-3.8-10.7-3.4-14.4,0.8s-3.4,10.7,0.8,14.4l90.3,80.8l-90,84.2
			c-4.1,3.9-4.3,10.3-0.5,14.4c2,2.1,4.8,3.2,7.5,3.2c2.5,0,5-0.9,6.9-2.7l91.3-85.4l24.8,22.1c2,1.7,4.4,2.6,6.8,2.6
			c2.4,0,4.9-0.9,6.8-2.6l25.5-22.8l90.8,86.3c2,1.9,4.5,2.8,7,2.8c2.7,0,5.4-1.1,7.4-3.2c3.9-4.1,3.7-10.6-0.4-14.4L263.4,418.2z"
			/>
	</g>
</g>
</svg>
