<?xml version="1.0" encoding="utf-8"?>
<!-- Generator: Adobe Illustrator 19.1.0, SVG Export Plug-In . SVG Version: 6.00 Build 0)  -->
<svg version="1.1" id="Layer_1" xmlns="http://www.w3.org/2000/svg" xmlns:xlink="http://www.w3.org/1999/xlink" x="0px" y="0px"
	 viewBox="-41 164.9 512 512" style="enable-background:new -41 164.9 512 512;" xml:space="preserve">
<style type="text/css">
	.st0{fill:#FFFFFF;}
</style>
<circle cx="215" cy="420.9" r="251"/>
<g>
	<g>
		<g>
			<path class="st0" d="M358.1,587.3l-50.6-107.1c-1-2.1-2.8-3.8-4.9-4.7l-25.2-11.2l43.6-73.1c0.1-0.2,0.2-0.4,0.3-0.5
				c8.7-16.9,13.1-35.2,13.1-54.4c0-32.2-12.6-62.4-35.6-85c-22.9-22.6-53.3-34.8-85.6-34.4c-31.3,0.4-60.8,13-83,35.4
				c-22.2,22.4-34.6,52-34.7,83.3c-0.1,19.1,4.4,38.2,13.1,55.1c0.1,0.2,0.2,0.4,0.3,0.5l43.6,73.1l-25.3,11.3
				c-2.1,0.9-3.7,2.6-4.7,4.6L71.9,587.3c-1.7,3.6-1,7.8,1.8,10.7c2.8,2.8,7,3.6,10.6,2l63.4-28.2l63.4,28.2c2.5,1.1,5.3,1.1,7.7,0
				l63.4-28.2l63.4,28.2c1.2,0.6,2.6,0.8,3.9,0.8c2.5,0,5-1,6.8-2.9C359.1,595.2,359.8,590.9,358.1,587.3z M125.4,381.8
				c-7.3-14.3-10.9-29.8-10.9-46.1c0.3-54.3,44.8-99.1,99.1-99.9c27.1-0.4,52.7,9.9,72,28.9c19.3,19,29.9,44.4,29.9,71.5
				c0,16-3.7,31.3-10.9,45.5l-81.5,136.6c-2.5,4.2-6.5,4.6-8.1,4.6c-1.6,0-5.6-0.4-8.1-4.6L125.4,381.8z M286.1,552.8
				c-2.5-1.1-5.3-1.1-7.7,0L215,581l-63.4-28.2c-2.5-1.1-5.3-1.1-7.7,0L100,572.3l38.2-80.8l24.2-10.8l28.2,47.3
				c5.2,8.7,14.3,13.9,24.4,13.9c10.1,0,19.2-5.2,24.4-13.9l28.2-47.3l24.2,10.8l38.2,80.8L286.1,552.8z"/>
		</g>
	</g>
	<g>
		<g>
			<path class="st0" d="M215,293.1c-23.8,0-43.2,19.4-43.2,43.2s19.4,43.2,43.2,43.2c23.8,0,43.2-19.4,43.2-43.2
				S238.8,293.1,215,293.1z M215,360.6c-13.4,0-24.3-10.9-24.3-24.3c0-13.4,10.9-24.3,24.3-24.3c13.4,0,24.3,10.9,24.3,24.3
				S228.4,360.6,215,360.6z"/>
		</g>
	</g>
</g>
</svg>
