<?xml version="1.0" encoding="utf-8"?>
<!-- Generator: Adobe Illustrator 19.1.0, SVG Export Plug-In . SVG Version: 6.00 Build 0)  -->
<svg version="1.1" id="Layer_1" xmlns="http://www.w3.org/2000/svg" xmlns:xlink="http://www.w3.org/1999/xlink" x="0px" y="0px"
	 viewBox="-41 164.9 512 512" style="enable-background:new -41 164.9 512 512;" xml:space="preserve">
<style type="text/css">
	.st0{fill:#FFFFFF;}
</style>
<circle cx="215" cy="420.9" r="251"/>
<g id="XMLID_1254_">
	<g>
		<g>
			<path class="st0" d="M370.6,530.3c-0.3,0-0.5,0-0.8,0c-15.1-0.4-27.3-13.2-27.3-28.6V488H230.8v14.2c0,7.7-3,14.8-8.5,20.1
				c-5.5,5.3-12.7,8.2-20.4,7.9c-15.1-0.4-27.3-13.2-27.3-28.6V488h-0.7c-12.2,0-22.1-9.9-22.1-22.1v-40.3
				c0-14.6,6.3-28.2,17.3-37.7l1.9-10.1l31.8-8.1l-1.2,6.5l67.8-0.4l0-11c0.1-14.9,12.2-26.9,27.1-26.9h9.8
				c-5.4-4.1-9-10.4-9.6-17.5c-0.1-1.4-0.1-2.8,0-4.2h-31.3l-1.5-1.2c-5.8-4.7-13.4-6.3-20.6-4.4l-22.1,5.6H213l-0.4,2.2l-31.8,8.1
				l5.3-27.9c1.3-7,7.5-12.1,14.6-12.1H254l1.7-12.3c0.7-5.1,5.2-9,10.3-9h43.4c5.2,0,9.6,3.9,10.3,9l1.7,12.3h51.2
				c7.1,0,13.3,5.1,14.6,12.1l17,89.3c11,9.5,17.3,23.1,17.3,37.7v40.3c0,12.2-9.9,22.1-22.1,22.1h-0.7v14.2c0,7.7-3,14.8-8.5,20.1
				C384.9,527.5,378,530.3,370.6,530.3z M219.8,477h133.7v24.7c0,9.4,7.5,17.3,16.6,17.6c4.7,0.1,9.1-1.6,12.4-4.8
				c3.3-3.2,5.2-7.6,5.2-12.3V477h11.7c6.1,0,11.1-5,11.1-11.1v-40.3c0-11.9-5.4-23-14.7-30.5l-1.6-1.3l-17.7-93.3
				c-0.3-1.8-1.9-3.1-3.8-3.1h-60.7l-3-21.3h-42.4l-3,21.3h-62.9c-1.9,0-3.5,1.3-3.8,3.1l-2.1,10.9l8.3-2.1l0.8-4.3h15.9l20.8-5.3
				c9.8-2.5,20.4-0.5,28.6,5.3h43.2l-3.5,7.8c-0.9,2.1-1.3,4.3-1.1,6.6c0.5,6.6,5.9,11.9,12.5,12.3c3.7,0.2,7.3-1.1,10-3.6
				c2.7-2.6,4.2-6,4.2-9.7c0-1.9-0.4-3.8-1.2-5.5l-3.5-7.8h39.7l15.6,82.4l-23.4-1.1l-0.1-21.7c0-8.8-7.3-16-16.1-16h-48.9
				c-8.8,0-16,7.2-16.1,16l-0.1,21.9l-92,0.6l0.5-2.7l-8.3,2.1l-1.4,7.1l-1.6,1.3c-9.4,7.4-14.8,18.5-14.8,30.4v40.3
				c0,6.1,5,11.1,11.1,11.1h11.7v24.7c0,9.4,7.5,17.3,16.6,17.6c4.7,0.1,9.1-1.6,12.4-4.8c3.3-3.3,5.2-7.6,5.2-12.3V477z
				 M335.8,337.9h9.6c8.4,0,15.9,3.8,20.9,9.9l-6-31.6h-15c0.1,0.8,0.1,1.5,0.1,2.3c0,6.7-2.8,13.2-7.7,17.7
				C337.2,336.9,336.5,337.4,335.8,337.9z M371.3,461.9c-14.8,0-26.8-12-26.8-26.8l0-0.3c0.2-14.7,12.2-26.6,26.8-26.6
				c14.8,0,26.8,12,26.8,26.8C398.1,449.8,386.1,461.9,371.3,461.9z M355.4,435.1c0,8.7,7.1,15.8,15.8,15.8
				c8.7,0,15.8-7.1,15.8-15.8c0-8.7-7.1-15.8-15.8-15.8c-8.7,0-15.8,7.1-15.8,15.7L355.4,435.1z M202.1,461.9
				c-14.8,0-26.8-12-26.8-26.8c0-14.8,12-26.8,26.8-26.8c14.7,0,26.7,12,26.8,26.6c0,0,0,0.1,0,0.2
				C228.9,449.8,216.9,461.9,202.1,461.9z M202.1,419.2c-8.7,0-15.8,7.1-15.8,15.8c0,8.7,7.1,15.8,15.8,15.8
				c8.7,0,15.8-7.1,15.8-15.8c0-0.1,0-0.2,0-0.2C217.8,426.3,210.7,419.2,202.1,419.2z"/>
			<path class="st0" d="M122.4,575.6c-0.4,0-0.8,0-1.2,0c-11.6-0.5-20.2-9.4-21.5-21.5c-1.3,12.1-9.9,20.9-21.5,21.5
				c-6.7,0.3-13-2-17.8-6.6c-4.8-4.6-7.5-10.8-7.5-17.5l0-167.1c-0.3-0.1-0.5-0.1-0.7-0.2c-0.3-0.1-0.7-0.2-1-0.3l-0.6,73.2
				c-0.1,11.5-9.5,20.9-21,20.9h-0.1c-11.6-0.1-21-9.5-20.9-21.1l0.6-74.7c0.1-23.2,19.1-42,42.2-42H138l106-27
				c5.4-1.4,11.1-0.6,15.9,2.3c4.8,2.9,8.3,7.4,9.6,12.9c1.4,5.4,0.6,11.1-2.3,15.9s-7.4,8.3-12.9,9.6h0
				c-28,7.1-48.9,12.5-64.5,16.4c-20.2,5.2-31.4,8-37.9,9.6c-3.4,0.8-5.8,3.9-5.8,7.4c0,13.9,0,30.8,0,41.3c0.1,0.6,0.2,1.3,0.2,2.1
				c0,0.8,0,2,0,3.7c0,3.5,0,9.2,0,18.1c0,17.8,0,48.2,0,98.8c0,6.7-2.7,12.9-7.5,17.5C134.5,573.3,128.6,575.6,122.4,575.6z
				 M88.9,449.6h21.7V551c0,6.3,3.5,13.3,11.2,13.6c3.6,0.2,7.1-1.1,9.7-3.6c2.6-2.5,4.1-5.9,4.1-9.5c0-58.2,0-94.5-0.1-111
				c-0.1-0.5-0.2-1.1-0.2-1.8c0-0.4,0-0.9,0-1.8c0-1.6,0-4.2,0-8.1c0-7.7,0-20.7,0-41.5c0-8.6,5.8-16,14.1-18.1
				c6.5-1.6,17.6-4.5,37.8-9.6c15.6-4,36.5-9.3,64.5-16.4h0c2.6-0.7,4.8-2.3,6.1-4.6c1.4-2.3,1.8-5,1.1-7.6
				c-0.7-2.6-2.3-4.8-4.6-6.1c-2.3-1.4-5-1.8-7.6-1.1l-107.3,27.3h-88c-17.1,0-31.2,13.9-31.2,31.1L19.6,457c0,5.5,4.4,10,10,10.1
				c5.6,0,10-4.5,10.1-10l0.6-75.7l0.3-0.9c1.4-3.8,5.3-9.8,15-6.8c0.1,0,0.3,0.1,0.4,0.1c4.5,0.3,8,4,8,8.6l0,169.1
				c0,3.6,1.4,7,4.1,9.5c2.6,2.5,6.1,3.8,9.7,3.6c7.7-0.4,11.2-7.3,11.2-13.6V449.6z"/>
			<path class="st0" d="M99.7,340.9C78.9,340.9,62,324,62,303.2s16.9-37.7,37.7-37.7s37.7,16.9,37.7,37.7S120.5,340.9,99.7,340.9z
				 M99.7,276.5c-14.7,0-26.7,12-26.7,26.7s12,26.7,26.7,26.7s26.7-12,26.7-26.7S114.4,276.5,99.7,276.5z"/>
		</g>
	</g>
</g>
</svg>
