<?xml version="1.0" encoding="utf-8"?>
<!-- Generator: Adobe Illustrator 19.1.0, SVG Export Plug-In . SVG Version: 6.00 Build 0)  -->
<svg version="1.1" id="Layer_1" xmlns="http://www.w3.org/2000/svg" xmlns:xlink="http://www.w3.org/1999/xlink" x="0px" y="0px"
	 viewBox="-41 164.9 512 512" style="enable-background:new -41 164.9 512 512;" xml:space="preserve">
<style type="text/css">
	.st0{fill:#FFFFFF;}
</style>
<circle cx="215" cy="420.9" r="251"/>
<g transform="translate(1 1)">
	<g>
		<g>
			<path class="st0" d="M366.9,493c-5.6-2.8-10.7-5.6-16.4-8.5c-14.8-7.5-30.3-13.3-46.2-17.3V324.4c0-49.6-40.6-90.2-90.2-90.2
				s-90.2,40.6-90.2,90.2v143.2c-15.8,4.1-31.1,9.8-45.7,16.9c-5.6,2.8-10.7,5.6-16.4,8.5C51.2,498,45,508.8,45,520.6v46.2
				c0,3.4,2.3,5.6,5.6,5.6h163.5h0.6h162.9c1.7,0,3.4-0.6,4.5-1.7c1.1-1.1,1.7-2.3,1.7-3.9v-46.2C383.9,509.3,377.1,498.6,366.9,493
				z M135.2,464.8V324.4c0-43.4,35.5-78.9,78.9-78.9s78.9,35.5,79.5,78.9v140.3c-11.2-2.3-22.6-3.9-34.1-4.7
				c-0.7-0.1-1.4-0.1-2.1-0.1c-0.1,0-0.1,0-0.2,0c-1-0.1-2.1-0.1-3.1-0.2c0,0,0,0,0,0v-28.9c16.7-16.5,27.6-42.9,27.6-72.6V330
				c0-3.4-2.3-5.6-5.6-5.6h-67.7c-15.2,0-18.6-9.6-22.6-29.3c-0.6-2.8-2.8-4.5-5.6-4.5c-2.8,0-5.1,2.3-5.6,4.5
				c-3.9,24.2-15.2,28.2-23.1,29.3c-2.8,0.6-5.1,2.8-5.1,5.6v28.2c0,30,11.1,56.7,28.2,73.2v28.3c0,0,0,0,0,0
				C162.8,460.3,148.7,462,135.2,464.8z M214.4,556.5l-57.8-83.8c6-0.7,12-1.3,18.1-1.5v5.5c0,3.4,2.3,5.6,5.6,5.6
				c3.4,0,5.6-2.3,5.6-5.6v-11.3v-25c2,1.2,4.1,2.3,6.2,3.2c6.9,3.2,14.3,4.9,22,4.9c9.8,0,19.2-2.8,27.6-7.9v24.8
				c0,1,0.2,1.9,0.6,2.7v8.6c0,3.4,2.3,5.6,5.6,5.6s5.6-2.3,5.6-5.6v-5.4c4,0.2,8,0.5,12,0.9c2.1,0.2,4.3,0.5,6.4,0.8L214.4,556.5z
				 M281.2,479.4l15.8,29.3l-62.6,38.9L281.2,479.4z M228.1,434.7c-1.9,0.7-3.8,1.2-5.8,1.6c-2,0.4-3.9,0.6-5.9,0.7
				c-1.3,0.1-2.6,0.1-4,0c-2-0.1-4-0.3-5.9-0.7c-7.9-1.5-15.5-5.4-22.3-11.5c-0.5-0.5-1.1-0.9-1.7-1.2c-15-14.2-24.8-38.2-24.8-65.3
				v-23.7c9.6-2.3,17.5-8.5,22-18c4.5,10.1,12.4,19.2,28.8,19.2h62v22.6C270.5,394.9,252.4,425.9,228.1,434.7z M193.8,547.1
				l-62.6-38.9l15.8-29.3L193.8,547.1z M56.3,520.6c0-7.3,3.9-14.1,10.7-18c5.1-2.8,10.7-5.1,15.8-7.9c14.7-7.2,30.4-12.9,46.5-16.9
				c0.1,0,0.2,0,0.3,0c0.2,0,0.4,0,0.6,0c2.1-0.5,4.2-1,6.3-1.5l-17,31.4c-1.7,2.3-0.6,5.6,1.7,7.3l74,46.2h-59.9v-16.9
				c0-3.4-2.3-5.6-5.6-5.6c-3.4,0-5.6,2.3-5.6,5.6v16.9H56.3L56.3,520.6L56.3,520.6z M372,561.2h-67.7v-16.9c0-3.4-2.3-5.6-5.6-5.6
				s-5.6,2.3-5.6,5.6v16.9h-59.3l74-46.2c2.3-1.7,3.4-4.5,1.7-7.3l-16.7-30.8c1.4,0.3,2.9,0.6,4.3,1c0.6,0.2,1.3,0.3,1.9,0.2
				c16,3.9,31.6,9.5,46.6,16.7c5.1,2.3,10.1,5.1,15.8,7.9c6.8,3.9,10.7,10.7,10.7,18L372,561.2L372,561.2z"/>
			<path class="st0" d="M377.7,574h-327c-4.2,0-7.1-2.9-7.1-7.1v-46.2c0-12.7,6.8-23.8,17.8-29c2.8-1.4,5.5-2.8,8.1-4.2
				c2.6-1.4,5.4-2.8,8.2-4.2c14.2-7,29.3-12.6,44.8-16.7v-142c0-50.6,41.1-91.7,91.7-91.7c50.6,0,91.7,41.1,91.7,91.7V466
				c15.9,4.2,31.2,9.9,45.4,17.2c2.8,1.4,5.6,2.9,8.2,4.2c2.6,1.4,5.3,2.8,8.1,4.2l0.1,0c10.7,6,17.7,17.3,17.7,28.9v46.2
				c0,2-0.7,3.5-2.1,5C381.9,573.2,379.8,574,377.7,574z M214.1,235.7c-48.9,0-88.7,39.8-88.7,88.7v144.3l-1.1,0.3
				c-15.8,4.1-31.1,9.8-45.4,16.8c-2.8,1.4-5.5,2.8-8.1,4.2c-2.6,1.4-5.4,2.8-8.2,4.2c-9.9,4.7-16.1,14.8-16.1,26.3v46.2
				c0,2.6,1.6,4.1,4.1,4.1h327c1.4,0,2.7-0.5,3.4-1.3c0.9-0.9,1.3-1.7,1.3-2.9v-46.2c0-10.5-6.3-20.8-16.1-26.3
				c-2.8-1.4-5.5-2.8-8.2-4.2c-2.6-1.4-5.3-2.8-8.2-4.2c-14.4-7.3-29.8-13.1-45.9-17.2l-1.1-0.3V324.4
				C302.9,275.5,263.1,235.7,214.1,235.7z M373.5,562.7h-70.7v-18.4c0-2.6-1.6-4.1-4.1-4.1c-2.6,0-4.1,1.6-4.1,4.1v18.4h-66l78.4-49
				c1.5-1.1,2.6-3.1,1.3-5.3l-18.3-33.8l3.2,0.7c1.4,0.3,2.9,0.6,4.3,1l0.1,0c0.4,0.1,0.8,0.2,1.3,0.1l0.3,0l0.3,0.1
				c16.1,4,31.9,9.6,46.8,16.8c3.3,1.5,6.7,3.2,10.2,5.1c1.8,0.9,3.7,1.9,5.6,2.8c7.3,4.2,11.5,11.5,11.5,19.4V562.7z M305.9,559.7
				h64.7v-39.1c0-6.8-3.7-13.1-10-16.7c-1.8-0.9-3.7-1.9-5.5-2.8c-3.5-1.8-6.8-3.5-10.1-5c-14.8-7.1-30.2-12.7-46.1-16.6
				c-0.8,0.1-1.5,0-2.2-0.3c-0.3-0.1-0.7-0.2-1-0.2l15.1,27.9c1.9,3.1,1,6.9-2.1,9.2l-0.1,0.1L239,559.7h52.6v-15.4
				c0-4.2,2.9-7.1,7.1-7.1c4.2,0,7.1,2.9,7.1,7.1V559.7z M200.3,562.7h-66.6v-18.4c0-2.6-1.6-4.1-4.1-4.1c-2.6,0-4.1,1.6-4.1,4.1
				v18.4H54.8l0-42.1c0-7.9,4.3-15.2,11.5-19.3c2.6-1.4,5.4-2.7,8-4c2.6-1.2,5.3-2.5,7.8-3.9c14.9-7.3,30.7-13,46.9-17.1l0.2-0.1
				l0.8,0c1.9-0.5,4-1,6.1-1.5l3.2-0.7l-18.7,34.5c-1.1,1.5-0.2,4,1.3,5.2L200.3,562.7z M136.7,559.7h53.1l-69.6-43.5
				c-2.8-2.1-4.2-6.3-2.1-9.3l15.3-28.4c-1,0.2-2,0.5-3,0.7l-0.4,0h-0.6c0,0-0.1,0-0.1,0c-15.9,4-31.4,9.6-46,16.8
				c-2.5,1.4-5.3,2.7-7.9,4c-2.6,1.2-5.3,2.5-7.8,3.9c-6.2,3.6-9.9,9.9-9.9,16.7l0,39.1h64.7v-15.4c0-4.2,2.9-7.1,7.1-7.1
				s7.1,2.9,7.1,7.1V559.7z M214.4,559.1L154,471.5l2.5-0.3c6.1-0.8,12.2-1.3,18.2-1.5l1.6-0.1v7c0,2.6,1.6,4.1,4.1,4.1
				c2.6,0,4.1-1.6,4.1-4.1v-39l2.3,1.4c2,1.2,4,2.2,6,3.1c6.9,3.2,14.1,4.8,21.4,4.8c9.3,0,18.4-2.6,26.9-7.7l2.3-1.4v27.5
				c0,0.7,0.1,1.4,0.4,2l0.1,0.3v8.9c0,2.6,1.6,4.1,4.1,4.1c2.6,0,4.1-1.6,4.1-4.1v-7l1.6,0.1c4,0.2,8.1,0.5,12,0.9
				c2.1,0.2,4.3,0.5,6.5,0.8l2.4,0.3L214.4,559.1z M159.3,473.8l55.2,80l55-79.7c-1.3-0.2-2.7-0.3-4-0.5c-3.4-0.3-6.9-0.6-10.3-0.8
				v3.8c0,4.2-2.9,7.1-7.1,7.1c-4.2,0-7.1-2.9-7.1-7.1v-8.3c-0.4-0.9-0.6-1.9-0.6-3v-22.2c-8.3,4.5-17.1,6.8-26.1,6.8
				c-7.7,0-15.3-1.7-22.6-5.1c-1.4-0.6-2.7-1.3-4.1-2v33.7c0,4.2-2.9,7.1-7.1,7.1s-7.1-2.9-7.1-7.1v-3.9
				C168.6,472.9,163.9,473.3,159.3,473.8z M229.2,552.7l52.2-76.1l17.6,32.7L229.2,552.7z M281.1,482.3l-41.4,60.3l55.3-34.4
				L281.1,482.3z M199.1,552.1l-69.9-43.4l17.6-32.7L199.1,552.1z M133.3,507.7l55.3,34.4l-41.4-60.3L133.3,507.7z M133.7,466.6
				V324.4c0-44.4,36.1-80.4,80.4-80.4c44.1,0,80.4,36.1,81,80.4v142.2l-1.8-0.4c-10.9-2.3-22.3-3.8-33.9-4.6c-0.7,0-1.4-0.1-2.1-0.1
				l-0.2,0c-1-0.1-2-0.1-3-0.2l-1.4-0.1l0-1.4v-29.5l0.4-0.4c17-16.8,27.2-43.5,27.2-71.5V330c0-2.6-1.6-4.1-4.1-4.1h-67.7
				c-16.7,0-20.2-11.5-24-30.5c-0.4-2-2-3.3-4.2-3.3c-2,0-3.7,1.7-4.2,3.3c-4.1,24.8-15.9,29.3-24.4,30.5c-2.2,0.4-3.8,2.2-3.8,4.2
				v28.2c0,28.4,10.4,55.3,27.7,72.1l0.5,0.4v30.5l-1.5,0c-12.5,0.6-26.4,2.4-39.2,5L133.7,466.6z M214.1,246.9
				c-42.7,0-77.4,34.7-77.4,77.4v138.6c11.9-2.4,24.7-4,36.5-4.7V432c-17.7-17.3-28.2-44.8-28.2-73.8V330c0-3.4,2.6-6.4,6.3-7.1
				c8.3-1.2,18.2-5.4,21.9-28.1l0-0.1c0.7-2.7,3.4-5.6,7.1-5.6c3.6,0,6.4,2.2,7.1,5.7c3.9,19.5,7.1,28.1,21.1,28.1h67.7
				c4.2,0,7.1,2.9,7.1,7.1v28.2c0,28.6-10.3,55.9-27.6,73.2v26.8c0.6,0,1.1,0.1,1.7,0.1l0.2,0c0.7,0,1.4,0.1,2.1,0.1
				c11,0.8,22,2.2,32.5,4.3V324.4C291.6,281.7,256.6,246.9,214.1,246.9z M214.4,438.5c-0.7,0-1.4,0-2.1,0c-2-0.1-4.1-0.3-6.1-0.7
				c-8.3-1.6-16.2-5.7-23-11.9c-0.4-0.4-0.9-0.7-1.3-1l-0.2-0.1l-0.2-0.2c-15.8-15.1-25.3-39.9-25.3-66.4v-24.9l1.2-0.3
				c9.3-2.2,16.8-8.3,21-17.2l1.4-3l1.3,3c5.5,12.5,14.2,18.3,27.4,18.3H272v24.1c0,36.6-17.8,68.7-43.4,77.9l0,0
				c-2,0.7-4,1.2-6,1.6c-2,0.4-4.1,0.6-6.1,0.7C215.8,438.5,215.1,438.5,214.4,438.5z M183.5,422.3c0.7,0.4,1.3,0.8,1.8,1.4
				c6.3,5.7,13.8,9.6,21.5,11.1c1.9,0.4,3.8,0.6,5.7,0.7c1.3,0.1,2.6,0.1,3.8,0c1.9-0.1,3.8-0.3,5.7-0.7c1.9-0.4,3.7-0.9,5.6-1.5
				c24.4-8.8,41.4-39.7,41.4-75v-21.1h-60.5c-13.3,0-22.7-5.7-28.8-17.3c-4.6,7.9-11.7,13.5-20.4,15.9v22.5
				C159.3,383.8,168.3,407.8,183.5,422.3z"/>
		</g>
	</g>
</g>
</svg>
