<?xml version="1.0" encoding="utf-8"?>
<!-- Generator: Adobe Illustrator 19.1.0, SVG Export Plug-In . SVG Version: 6.00 Build 0)  -->
<svg version="1.1" id="Слой_1" xmlns="http://www.w3.org/2000/svg" xmlns:xlink="http://www.w3.org/1999/xlink" x="0px" y="0px"
	 viewBox="-247 370.9 100 100" style="enable-background:new -247 370.9 100 100;" xml:space="preserve">
<path d="M-152,435.9c0.4-6.3-0.3-13.8-0.5-17.3c-0.4-5.7-5.4-10.3-5.4-10.3c0.3-1.1,1.9-1.3,1.9-1.3s3.3-0.2,3-2.1
	c-0.9-2.9-4.7-3.8-6.4-4.1c-1.7-0.4-1.8,1.2-1.8,1.2s0.1,2.1,0.4,3.8s0,1.1,0,1.1s-4-9.7-4.9-11.3c-0.9-1.6-3.2-6.2-6.4-7
	c-3.5-0.8-24.8-1.3-24.8-1.3s-21.4,0.5-24.8,1.3c-3.2,0.8-5.5,5.4-6.4,7c-0.9,1.6-4.9,11.3-4.9,11.3s-0.3,0.6,0-1.1
	c0.3-1.7,0.4-3.8,0.4-3.8s-0.1-1.6-1.8-1.2c-1.7,0.4-5.4,1.3-6.4,4.1c-0.3,2,3,2.1,3,2.1s1.6,0.1,1.9,1.3c0,0-5,4.7-5.4,10.3
	c-0.2,3.6-0.9,11-0.5,17.3l-0.1-0.3c0,0,0,12.9,0,15.6s1,3.6,2.4,3.6c1.4,0.1,10.4,0,10.4,0s1.6-0.5,1.6-2.1c0-1.6,0.2-5.7,0.2-5.7
	c5,0.2,9.5,0.2,9.5,0.2s1.1-0.6,1.6-1.1c0.5-0.5,13,0.7,19.3,0.7s18.8-1.2,19.3-0.7c0.5,0.5,1.6,1.1,1.6,1.1s4.5,0.1,9.5-0.2
	c0,0,0.2,4.1,0.2,5.7c0,1.6,1.6,2.1,1.6,2.1s9,0.1,10.4,0c1.4-0.1,2.4-0.9,2.4-3.6c0-2.7,0-15.6,0-15.6L-152,435.9z M-160.4,409.4
	c0,0,3.1-0.5,4.2,4.1c1,4.6-4.9,5.3-4.9,5.3s-16,2.5-10-3.7C-165.1,408.8-160.4,409.4-160.4,409.4z M-223,390.7
	c2.8-1.1,26.1-1.4,26.1-1.4s23.4,0.3,26.1,1.4c2.8,1.1,6.2,14.6,6.2,14.6s-8.8-0.5-9.8-0.8c-1-0.4-22.5-0.9-22.5-0.9
	s-21.5,0.6-22.5,0.9c-1,0.4-9.8,0.8-9.8,0.8S-225.8,391.7-223,390.7z M-237.6,413.4c1-4.6,4.2-4.1,4.2-4.1s4.7-0.5,10.8,5.7
	c6,6.2-10,3.7-10,3.7S-238.6,418-237.6,413.4z M-226.3,439c-1,1.2-2.4,1-2.4,1s-2.4-0.1-4.2-0.2c-1.8-0.1-2-1.6-2.4-2.8
	c-0.5-1.2,0.9-1.3,0.9-1.3s4.4-0.3,7.2,0.4C-224.6,436.8-225.3,437.8-226.3,439z M-228.5,433.3c-4.7-0.3-5.5-0.8-5.5-0.8
	s-3.3-0.7-4.1-6.2c-0.7-5.5,3.3-4.8,3.3-4.8s7.9,0.1,10.8,0.4c1.5,0.2,6.6,1.1,5.4,3.3c-1.5,2.8-2.7,5.2-4.3,6.7
	C-224,433-224.7,433.6-228.5,433.3z M-178.7,433.5c-5.8,0.2-18.2,0.3-18.2,0.3s-12.4-0.1-18.2-0.3c-5.8-0.2-4.3-3.2-4.3-3.2
	s1.6-3.4,3.2-5.8c1.5-2.5,5.2-2.5,5.2-2.5h14.1l0,0h14.1c0,0,3.7,0,5.2,2.5s3.2,5.8,3.2,5.8S-172.9,433.3-178.7,433.5z M-158.4,437
	c-0.5,1.2-0.6,2.7-2.4,2.8c-1.8,0.1-4.2,0.2-4.2,0.2s-1.3,0.2-2.4-1c-1-1.2-1.7-2.3,1-3c2.8-0.7,7.2-0.4,7.2-0.4
	S-158,435.8-158.4,437z M-155.8,426.4c-0.7,5.5-4.1,6.2-4.1,6.2s-0.9,0.4-5.5,0.8c-3.8,0.3-4.5-0.4-5.6-1.3
	c-1.6-1.5-2.7-3.9-4.3-6.7c-1.2-2.1,3.9-3.1,5.4-3.3c2.8-0.3,10.8-0.4,10.8-0.4S-155,420.9-155.8,426.4z"/>
</svg>
