<?xml version="1.0" encoding="utf-8"?>
<!-- Generator: Adobe Illustrator 19.1.0, SVG Export Plug-In . SVG Version: 6.00 Build 0)  -->
<svg version="1.1" id="Слой_1" xmlns="http://www.w3.org/2000/svg" xmlns:xlink="http://www.w3.org/1999/xlink" x="0px" y="0px"
	 viewBox="-247 358.9 100 80.9" style="enable-background:new -247 358.9 100 80.9;" xml:space="preserve">
<path d="M-152.3,398.5c-0.2-0.5-0.3-0.5-0.4-0.5c-0.1-3.1-0.7-4.3-0.7-4.3s-3.9-4.5-4.8-5.3c-0.9-0.9-2-2.5-1.9-2.6
	c0.1-0.1,1.2-0.9,1.9-0.7c0.7,0.2,2.3,0,4.1-0.5c1.8-0.6,1.6-2.5,1.6-2.5s-0.6-2.2-2.8-2.7c-2.3-0.5-4-0.4-4.7,0.1c-0.6,0.5,0,3,0,3
	s0.2,0.5-0.5,0.5c-0.7,0-1.2-0.7-1.2-0.7c-0.9-3.1-6.4-10.8-7.6-11.7c-0.9-0.7-1.8-0.9-2.4-1c-0.1,0-0.3,0-0.3,0.3
	c-4.2-1.5-23.4-1.9-23.4-1.9h-1.6l0,0h-1.6c0,0-19.2,0.4-23.4,1.9c-0.1-0.2-0.2-0.3-0.3-0.3c-0.6,0-1.5,0.3-2.4,1
	c-1.2,0.9-6.7,8.6-7.6,11.7c0,0-0.5,0.8-1.2,0.7c-0.7,0-0.5-0.5-0.5-0.5s0.6-2.5,0-3c-0.6-0.5-2.4-0.7-4.7-0.1
	c-2.3,0.5-2.8,2.7-2.8,2.7s-0.3,2,1.6,2.5c1.8,0.6,3.4,0.7,4.1,0.5c0.7-0.2,1.8,0.6,1.9,0.7c0.1,0.1-0.9,1.7-1.9,2.6
	c-0.9,0.9-4.8,5.3-4.8,5.3s-0.5,1.3-0.7,4.3c0,0-0.2-0.1-0.4,0.4c-1,2.8-1.2,26.6-1.1,28c0.1,1.4,1,1.4,1,1.4s9.6,0.2,13,0
	c0.4,0,0.9-0.1,0.9-1.3c0-0.9,0-3.2,0-3.2v-0.2c0.8,0,1.7,0.1,2.6,0.2c0.7,0.1,1.2,0.5,1.2,0.5l9,0l18.4,0.2l18.4-0.2l9,0
	c0,0,0.5-0.4,1.2-0.5c0.9-0.1,1.7-0.2,2.5-0.2v0.2c0,0,0,2.3,0,3.2c0,1.2,0.5,1.3,0.9,1.3c3.4,0.2,13,0,13,0s0.9,0,1-1.4
	C-151.1,425-151.3,401.2-152.3,398.5z M-153.8,410.8l-1.2,7.8l-0.9-0.2L-153.8,410.8z M-157.4,411.4c0,0,0.5,0,0.3,0.7
	c-1.7,6.1-7.5,6.4-7.5,6.4s-5.6,0-6.2,0c-0.6,0-0.2-0.8-0.2-0.8s2.8-4.7,3.1-5.3c0.3-0.6,0.8-0.6,0.8-0.6L-157.4,411.4z
	 M-160.5,391.3c0.7,0.2,2.8,1.3,2,7.8c-0.7,3-1.7,3.7-4.1,3.9c-2.1,0.2-10.4,0.4-10.4,0.4s-0.9,0.1-0.5-0.9c0.4-1,1.4-3.1,1.4-3.1
	s0.7-1.5,3.2-2.4c1.4-0.5,2.4-0.9,2.5-1.1c0.2-0.3-0.3,0.5,0.7-1.1C-164.5,393.2-162.3,390.7-160.5,391.3z M-224.2,371.5
	c0,0,14.7-1.7,27-1.7l0,0c0,0,0,0,0.1,0c0,0,0,0,0.1,0l0,0c12.3,0,27,1.7,27,1.7s4,5.3,6.7,12.8c-17.2-1.1-32.4-1-33.7-1v0
	c0,0,0,0-0.1,0c0,0-0.1,0-0.1,0v0c-1.4,0-16.5-0.1-33.7,1C-228.2,376.8-224.2,371.5-224.2,371.5z M-214.4,403.6
	c-2.5-0.4-3.1-2.2-3.1-2.2l-1.4-4.2c0,0-0.5-1.9,1.4-2c2.3-0.2,18-1,20.5-0.9c2.5-0.1,18.1,0.7,20.5,0.9c1.9,0.2,1.4,2,1.4,2
	l-1.4,4.2c0,0-0.6,1.7-3.1,2.2c-2.4,0.4-15.9,0.9-17.2,0.9v0c0,0,0,0-0.1,0c0,0-0.1,0-0.1,0v0C-198.5,404.4-212,404-214.4,403.6z
	 M-233.8,391.3c1.9-0.6,4.1,1.9,5.2,3.4c1.1,1.6,0.5,0.8,0.7,1.1c0.1,0.2,1.1,0.6,2.5,1.1c2.6,0.9,3.2,2.4,3.2,2.4s1,2.1,1.4,3.1
	c0.4,1-0.5,0.9-0.5,0.9s-8.3-0.2-10.4-0.4c-2.4-0.2-3.4-1-4.1-3.9C-236.6,392.6-234.5,391.5-233.8,391.3z M-236.8,411.4l9.8,0.4
	c0,0,0.5,0,0.8,0.6c0.3,0.6,3.1,5.3,3.1,5.3s0.4,0.7-0.2,0.8c-0.6,0-6.2,0-6.2,0s-5.7-0.2-7.5-6.4
	C-237.4,411.4-236.8,411.4-236.8,411.4z M-238.4,418.4l-0.9,0.2l-1.2-7.8L-238.4,418.4z M-221.3,421.4c-0.3,0-8.8-0.2-8.8-0.2
	s-3.7-0.1-4.8-1.5c-0.4-0.6,0.2-0.6,0.2-0.6s2.1,0.7,5.1,0.8c3,0.1,7.8,0.2,7.8,0.2s0.6,0,0.9,0.6
	C-220.6,421.2-221,421.4-221.3,421.4z M-176.1,421c-0.3,0.4-0.8,0.4-0.8,0.4h-20.1h-0.1h-20.1c0,0-0.5,0-0.8-0.4
	c-0.4-0.5-0.3-0.8,0.2-0.8l20.8,0.2l20.8-0.2C-175.8,420.2-175.7,420.5-176.1,421z M-174.6,418.6l-22.5,0.4v0l-0.1,0l-0.1,0v0
	l-22.5-0.4c0,0-0.5,0.1-1-0.5c-0.5-0.6-3.3-5.7-3.3-5.7s-0.1-0.6,0.4-0.6l26.5,0.7l26.5-0.7c0.6,0,0.4,0.6,0.4,0.6s-2.8,5-3.3,5.7
	C-174.1,418.8-174.6,418.6-174.6,418.6z M-172.9,421.4c-0.3,0-0.7-0.1-0.4-0.7s0.9-0.6,0.9-0.6s4.8-0.1,7.8-0.2
	c3-0.1,5.1-0.8,5.1-0.8s0.6-0.1,0.2,0.6c-1.1,1.4-4.8,1.5-4.8,1.5S-172.6,421.4-172.9,421.4z"/>
<ellipse cx="-166.3" cy="425.1" rx="1.8" ry="2"/>
<ellipse cx="-232.4" cy="424.6" rx="1.7" ry="1.8"/>
<ellipse cx="-161.8" cy="424.6" rx="1.7" ry="1.8"/>
<ellipse cx="-228" cy="425.1" rx="1.8" ry="2"/>
</svg>
