<?xml version="1.0" encoding="utf-8"?>
<!-- Generator: Adobe Illustrator 19.1.0, SVG Export Plug-In . SVG Version: 6.00 Build 0)  -->
<svg version="1.1" id="Слой_1" xmlns="http://www.w3.org/2000/svg" xmlns:xlink="http://www.w3.org/1999/xlink" x="0px" y="0px"
	 viewBox="-247 370.9 100 100" style="enable-background:new -247 370.9 100 100;" xml:space="preserve">
<circle cx="-229.3" cy="436.5" r="1.9"/>
<circle cx="-164.7" cy="436.5" r="1.9"/>
<path d="M-183.7,437c0,0.3-0.3,0.6-0.6,0.6h-25.5c-0.3,0-0.6-0.3-0.6-0.6v-4.6c0-0.3,0.3-0.6,0.6-0.6h25.5c0.3,0,0.6,0.3,0.6,0.6
	V437z"/>
<ellipse cx="-197" cy="425.3" rx="5.5" ry="2.2"/>
<path d="M-152,404.5c-0.9-2.6-3.3-2.6-3.3-2.6s-3.8-0.3-5.4-0.4c-1.5,0-0.7,4.4-0.7,4.4h-1.6c0,0-7.3-15-10.8-16.8
	c-3.4-1.8-17.5-1.8-23.3-1.8s-19.9,0-23.3,1.8c-3.5,1.8-10.8,16.8-10.8,16.8h-1.6c0,0,0.9-4.4-0.7-4.4c-1.5,0-5.4,0.4-5.4,0.4
	s-2.4,0-3.3,2.6c0,3.1,10.1,3.7,10.1,3.7s-3.6,4.9-3.6,6.3c-0.1,1.3-2.7,5.6-2.7,5.6s-0.7,3.8-0.1,10.8c0,0-0.3,17.3,0.2,20.1
	c0.3,1.9,0.5,3.5,2.7,3.5c2.2,0,6.7,0,6.7,0s2.4,0,2.4-1.8c0-1.8,0.4-6.7,0.4-6.7l8.5,0.2c0,0,2.6-0.8,3.8-0.8c1.2,0,32.4,0,33.6,0
	c1.2,0,3.8,0.8,3.8,0.8l8.5-0.2c0,0,0.4,4.9,0.4,6.7c0,1.8,2.4,1.8,2.4,1.8s4.5,0,6.7,0c2.2,0,2.4-1.6,2.7-3.5
	c0.5-2.8,0.2-20.1,0.2-20.1c0.6-7-0.1-10.8-0.1-10.8s-2.7-4.3-2.7-5.6c-0.1-1.3-3.6-6.3-3.6-6.3S-152,407.6-152,404.5z
	 M-221.6,391.4c4.7-1,18.4-1.2,24.6-1.2c6.2,0,19.9,0.3,24.6,1.2c0.9,0.9,6.9,13.2,6.8,15.4h-62.7
	C-228.4,404.6-222.5,392.4-221.6,391.4z M-161.7,415.8c0.4,0.4,2.4,3.6,1.1,6.9c-0.8,2-3.7,2.7-3.7,2.7s-13.2,4.2-14.4,4.8
	c-2.4,1-0.6,3.8-0.6,3.8s1.9,3.7,3.6,5.7c1.6,2,3.9,1.8,3.9,1.8s10.4-0.5,10.7-0.5c0.3,0-0.4-2-0.4-2s-10.8,0.3-11.5-0.2
	c-0.8-0.6-1.8-1.8-2.4-2.7c0.2,0,11.2-1.8,11.2-1.8s2.3-0.7,3.1,1s0.8,7,0.8,7s-4.2,1.5-17.4,1.5c-12.6,0-25.9,0-38.5,0
	c-13.2,0-17.4-1.5-17.4-1.5s0.1-5.3,0.8-7c0.8-1.7,3.1-1,3.1-1s11,1.8,11.2,1.8c-0.7,0.9-1.6,2.1-2.4,2.7
	c-0.7,0.5-11.5,0.2-11.5,0.2s-0.7,2-0.4,2c0.3,0,10.7,0.5,10.7,0.5s2.2,0.2,3.9-1.8c1.6-1.9,3.6-5.7,3.6-5.7s1.9-2.8-0.6-3.8
	c-1.3-0.5-4.8-1.8-7.9-2.9c-2-0.7-6.7-1.9-6.7-1.9c-0.1,0-2.8-0.6-3.5-2.6c-1.3-3.3,0.7-6.4,1.1-6.9c0.5-0.6,1.9-0.8,1.9-0.8
	c1.4,0.2,13.9,5.5,13.9,5.5c4.8,0.6,34.5,0.6,39.1,0c0,0,12.4-5.3,13.8-5.4C-163.6,415-162.2,415.3-161.7,415.8z"/>
<path d="M-230.5,415.7c-0.3,0-0.9,0.2-1.3,0.6c-0.4,0.4-2.1,3.2-1,6.1c0.6,1.7,3,2.2,3,2.2l8.7,2.6l3.7-6.3
	C-217.3,420.9-229.1,415.8-230.5,415.7z"/>
<path d="M-176.7,420.9l3.7,6.3l8.7-2.6c0,0,2.4-0.5,3-2.2c1.1-2.9-0.6-5.8-1-6.1c-0.4-0.4-1.1-0.6-1.3-0.6
	C-164.9,415.8-176.7,420.9-176.7,420.9z"/>
</svg>
